HIERARCHY
ROOT Hips
{
	OFFSET 0.000000 103.266502 0.000000
	CHANNELS 6 Xposition Yposition Zposition Xrotation Yrotation Zrotation 
	JOINT Spine
	{
		OFFSET -0.002400 12.777504 0.315300
		CHANNELS 3 Xrotation Yrotation Zrotation
		JOINT Spine1
		{
			OFFSET -0.002067 5.816869 0.032633
			CHANNELS 3 Xrotation Yrotation Zrotation
			JOINT Spine1_split
			{
				OFFSET -0.002067 5.816869 0.032633
				CHANNELS 3 Xrotation Yrotation Zrotation
				JOINT Spine2
				{
					OFFSET -0.002067 5.816869 0.032633
					CHANNELS 3 Xrotation Yrotation Zrotation
					JOINT Neck
					{
						OFFSET -0.003700 21.199493 -0.826900
						CHANNELS 3 Xrotation Yrotation Zrotation
						JOINT Head
						{
							OFFSET 0.000000 20.442200 4.834800
							CHANNELS 3 Xrotation Yrotation Zrotation
							JOINT HeadTop_End
							{
								OFFSET 0.000000 34.668396 4.968400
								CHANNELS 3 Xrotation Yrotation Zrotation
								End Site
								{
									OFFSET 0.000000 0.000000 0.000000
								}
							}
						}
					}
					JOINT LeftShoulder
					{
						OFFSET 3.288150 8.794197 -1.372250
						CHANNELS 3 Xrotation Yrotation Zrotation
						JOINT LeftShoulder_split
						{
							OFFSET 3.288150 8.794197 -1.372250
							CHANNELS 3 Xrotation Yrotation Zrotation
							JOINT LeftArm
							{
								OFFSET 11.953299 -2.279007 -0.146200
								CHANNELS 3 Xrotation Yrotation Zrotation
								JOINT LeftForeArm
								{
									OFFSET 18.448900 0.000000 0.000000
									CHANNELS 3 Xrotation Yrotation Zrotation
									JOINT LeftHand
									{
										OFFSET 29.527798 0.000000 0.000000
										CHANNELS 3 Xrotation Yrotation Zrotation
										JOINT LeftHandThumb1
										{
											OFFSET 10.739754 -2.369614 9.225399
											CHANNELS 3 Xrotation Yrotation Zrotation
											JOINT LeftHandThumb2
											{
												OFFSET 4.926170 -2.844131 2.844125
												CHANNELS 3 Xrotation Yrotation Zrotation
												JOINT LeftHandThumb3
												{
													OFFSET 4.614891 -2.664413 2.664409
													CHANNELS 3 Xrotation Yrotation Zrotation
													JOINT LeftHandThumb4
													{
														OFFSET 4.432465 -2.559082 2.559083
														CHANNELS 3 Xrotation Yrotation Zrotation
														End Site
														{
															OFFSET 0.000000 0.000000 0.000000
														}
													}
												}
											}
										}
										JOINT LeftHandIndex1
										{
											OFFSET 26.467674 0.187653 6.405298
											CHANNELS 3 Xrotation Yrotation Zrotation
											JOINT LeftHandIndex2
											{
												OFFSET 8.792900 0.000000 0.000000
												CHANNELS 3 Xrotation Yrotation Zrotation
												JOINT LeftHandIndex3
												{
													OFFSET 10.075203 0.000000 0.000000
													CHANNELS 3 Xrotation Yrotation Zrotation
													End Site
													{
														OFFSET 0.000000 0.000000 0.000000
													}
												}
											}
										}
										JOINT LeftHandMiddle1
										{
											OFFSET 25.764404 0.000000 0.000000
											CHANNELS 3 Xrotation Yrotation Zrotation
											JOINT LeftHandMiddle2
											{
												OFFSET 9.393974 0.000000 0.000000
												CHANNELS 3 Xrotation Yrotation Zrotation
												JOINT LeftHandMiddle3
												{
													OFFSET 10.771950 0.000000 0.000000
													CHANNELS 3 Xrotation Yrotation Zrotation
													End Site
													{
														OFFSET 0.000000 0.000000 0.000000
													}
												}
											}
										}
										JOINT LeftHandRing1
										{
											OFFSET 24.660927 0.144547 -6.225808
											CHANNELS 3 Xrotation Yrotation Zrotation
											JOINT LeftHandRing2
											{
												OFFSET 9.393799 0.000000 0.000000
												CHANNELS 3 Xrotation Yrotation Zrotation
												JOINT LeftHandRing3
												{
													OFFSET 9.928497 0.000000 0.000000
													CHANNELS 3 Xrotation Yrotation Zrotation
													End Site
													{
														OFFSET 0.000000 0.000000 0.000000
													}
												}
											}
										}
										JOINT LeftHandPinky1
										{
											OFFSET 23.655350 0.125290 -12.815412
											CHANNELS 3 Xrotation Yrotation Zrotation
											JOINT LeftHandPinky2
											{
												OFFSET 8.425102 0.000000 0.000000
												CHANNELS 3 Xrotation Yrotation Zrotation
												JOINT LeftHandPinky3
												{
													OFFSET 8.147003 0.000000 0.000000
													CHANNELS 3 Xrotation Yrotation Zrotation
													End Site
													{
														OFFSET 0.000000 0.000000 0.000000
													}
												}
											}
										}
									}
								}
							}
						}
					}
					JOINT RightShoulder
					{
						OFFSET -3.249400 8.794197 -1.372250
						CHANNELS 3 Xrotation Yrotation Zrotation
						JOINT RightShoulder_split
						{
							OFFSET -3.249400 8.794197 -1.372250
							CHANNELS 3 Xrotation Yrotation Zrotation
							JOINT RightArm
							{
								OFFSET -11.953299 -2.279007 -0.146200
								CHANNELS 3 Xrotation Yrotation Zrotation
								JOINT RightForeArm
								{
									OFFSET -18.448900 0.000000 0.000000
									CHANNELS 3 Xrotation Yrotation Zrotation
									JOINT RightHand
									{
										OFFSET -29.527802 0.000000 0.000000
										CHANNELS 3 Xrotation Yrotation Zrotation
										JOINT RightHandThumb1
										{
											OFFSET -10.739754 -2.369614 9.225399
											CHANNELS 3 Xrotation Yrotation Zrotation
											JOINT RightHandThumb2
											{
												OFFSET -4.926170 -2.844131 2.844125
												CHANNELS 3 Xrotation Yrotation Zrotation
												JOINT RightHandThumb3
												{
													OFFSET -4.614891 -2.664413 2.664409
													CHANNELS 3 Xrotation Yrotation Zrotation
													JOINT RightHandThumb4
													{
														OFFSET -4.432465 -2.559082 2.559083
														CHANNELS 3 Xrotation Yrotation Zrotation
														End Site
														{
															OFFSET 0.000000 0.000000 0.000000
														}
													}
												}
											}
										}
										JOINT RightHandIndex1
										{
											OFFSET -26.467674 0.187653 6.405298
											CHANNELS 3 Xrotation Yrotation Zrotation
											JOINT RightHandIndex2
											{
												OFFSET -8.792900 0.000000 0.000000
												CHANNELS 3 Xrotation Yrotation Zrotation
												JOINT RightHandIndex3
												{
													OFFSET -10.075203 0.000000 0.000000
													CHANNELS 3 Xrotation Yrotation Zrotation
													End Site
													{
														OFFSET 0.000000 0.000000 0.000000
													}
												}
											}
										}
										JOINT RightHandMiddle1
										{
											OFFSET -25.764404 0.000000 0.000000
											CHANNELS 3 Xrotation Yrotation Zrotation
											JOINT RightHandMiddle2
											{
												OFFSET -9.393974 0.000000 0.000000
												CHANNELS 3 Xrotation Yrotation Zrotation
												JOINT RightHandMiddle3
												{
													OFFSET -10.771950 0.000000 0.000000
													CHANNELS 3 Xrotation Yrotation Zrotation
													End Site
													{
														OFFSET 0.000000 0.000000 0.000000
													}
												}
											}
										}
										JOINT RightHandRing1
										{
											OFFSET -24.660927 0.144547 -6.225808
											CHANNELS 3 Xrotation Yrotation Zrotation
											JOINT RightHandRing2
											{
												OFFSET -9.393799 0.000000 0.000000
												CHANNELS 3 Xrotation Yrotation Zrotation
												JOINT RightHandRing3
												{
													OFFSET -9.928497 0.000000 0.000000
													CHANNELS 3 Xrotation Yrotation Zrotation
													End Site
													{
														OFFSET 0.000000 0.000000 0.000000
													}
												}
											}
										}
										JOINT RightHandPinky1
										{
											OFFSET -23.655350 0.125290 -12.815412
											CHANNELS 3 Xrotation Yrotation Zrotation
											JOINT RightHandPinky2
											{
												OFFSET -8.425102 0.000000 0.000000
												CHANNELS 3 Xrotation Yrotation Zrotation
												JOINT RightHandPinky3
												{
													OFFSET -8.147003 0.000000 0.000000
													CHANNELS 3 Xrotation Yrotation Zrotation
													End Site
													{
														OFFSET 0.000000 0.000000 0.000000
													}
												}
											}
										}
									}
								}
							}
						}
					}
				}
			}
		}
	}
	JOINT LeftUpLeg
	{
		OFFSET 11.394100 -6.187798 -0.413800
		CHANNELS 3 Xrotation Yrotation Zrotation
		JOINT LeftLeg
		{
			OFFSET 0.430247 -32.302673 3.732800
			CHANNELS 3 Xrotation Yrotation Zrotation
			JOINT LeftFoot
			{
				OFFSET -0.430247 -48.264931 -6.423300
				CHANNELS 3 Xrotation Yrotation Zrotation
				JOINT LeftToeBase
				{
					OFFSET 4.230900 -16.068199 23.438400
					CHANNELS 3 Xrotation Yrotation Zrotation
					JOINT LeftToe_End
					{
						OFFSET 4.510700 0.695400 19.974600
						CHANNELS 3 Xrotation Yrotation Zrotation
						End Site
						{
							OFFSET 0.000000 0.000000 0.000000
						}
					}
				}
			}
		}
	}
	JOINT RightUpLeg
	{
		OFFSET -11.333700 -6.187798 -0.413800
		CHANNELS 3 Xrotation Yrotation Zrotation
		JOINT RightLeg
		{
			OFFSET -0.430392 -32.302628 3.733000
			CHANNELS 3 Xrotation Yrotation Zrotation
			JOINT RightFoot
			{
				OFFSET 0.430392 -48.264973 -6.423500
				CHANNELS 3 Xrotation Yrotation Zrotation
				JOINT RightToeBase
				{
					OFFSET -4.230900 -16.068199 23.438400
					CHANNELS 3 Xrotation Yrotation Zrotation
					JOINT RightToe_End
					{
						OFFSET -4.510700 0.695400 19.974600
						CHANNELS 3 Xrotation Yrotation Zrotation
						End Site
						{
							OFFSET 0.000000 0.000000 0.000000
						}
					}
				}
			}
		}
	}
}
MOTION
Frames: 6
Frame Time: 0.016667
-0.093562 107.687241 -3.414986 -90.807522 -2.089188 1.728433 0.698635 -0.122047 -0.879575 0.841694 0.154199 -0.463161 0.000000 0.000000 0.000000 0.831244 0.158014 -0.488484 -3.902739 4.009047 -8.413908 2.479692 8.403989 -12.879455 -0.000000 -0.000000 0.000001 0.834131 -6.730775 -3.480306 0.000000 0.000000 0.000000 44.076584 -39.845862 -34.620911 0.000279 -83.340507 0.000255 -23.114873 -8.492734 7.463186 -1.945772 1.585333 13.204790 8.601843 21.114942 -0.258281 -4.250524 28.326751 20.005254 0.000003 0.000001 -0.000000 0.776299 5.158032 -28.512485 0.566014 2.514182 -25.370931 -0.000002 -0.000000 -0.000000 0.776304 5.158033 -28.512490 0.566015 2.514185 -25.370932 -0.000001 0.000000 -0.000001 0.776300 5.158029 -28.512490 0.351470 2.000423 -19.928018 0.000000 -0.000000 -0.000000 0.776301 5.158030 -28.512490 0.064890 0.870546 -8.527013 0.000002 -0.000002 -0.000001 0.483594 4.500680 3.202689 0.000000 0.000000 0.000000 -4.326306 2.268508 83.611522 0.000019 129.571967 -0.000014 -0.045405 -5.712109 64.766784 -1.120906 -3.665706 -6.555846 8.244823 -30.620776 -3.274794 -5.098231 -8.587473 -15.375854 0.000002 -0.000000 0.000001 4.540606 -8.344329 48.387399 6.575551 -4.244511 114.349094 -0.000001 -0.000000 -0.000001 2.375474 -6.542196 44.640201 7.222613 -3.888186 123.454809 0.000000 -0.000001 -0.000002 2.745568 -6.923868 44.442282 7.225006 -3.886594 123.490298 -0.000000 0.000000 0.000002 -10.268030 -14.528492 47.436282 6.314158 -4.353046 110.862897 -0.000000 0.000001 -0.000001 -4.248288 19.584207 15.512360 3.568228 2.162347 1.564906 23.169950 29.771695 -25.663712 -1.872549 0.000001 0.000007 0.000000 0.000001 0.000000 -5.867333 -19.342542 -17.185270 2.525877 -6.348489 -4.757338 33.950367 -29.881586 30.490183 -4.604398 0.000022 0.000003 0.000000 0.000002 -0.000000 
-0.093460 107.687279 -3.414093 -90.808267 -2.088886 1.729537 0.698644 -0.122055 -0.879460 0.841706 0.154199 -0.463160 0.000000 0.000000 0.000000 0.831221 0.158014 -0.488483 -3.911645 4.013355 -8.413903 2.496877 8.457177 -12.890524 0.000000 -0.000000 -0.000001 0.834538 -6.714838 -3.485306 0.000000 0.000000 0.000000 44.088970 -39.859475 -34.587692 0.000491 -83.340507 0.000507 -23.122552 -8.493327 7.462394 -1.945771 1.585336 13.204791 8.601841 21.114942 -0.258286 -4.250525 28.326751 20.005254 -0.000002 0.000001 -0.000000 0.776300 5.158031 -28.512486 0.566016 2.514183 -25.370929 0.000000 0.000001 0.000001 0.776304 5.158033 -28.512481 0.566015 2.514180 -25.370937 0.000000 0.000001 0.000002 0.776301 5.158030 -28.512492 0.351472 2.000423 -19.928019 -0.000001 0.000001 0.000001 0.776300 5.158033 -28.512486 0.064890 0.870547 -8.527013 -0.000001 -0.000002 -0.000001 0.484300 4.488119 3.202633 0.000000 0.000000 0.000000 -4.331808 2.278543 83.612471 0.000019 129.566585 -0.000014 -0.044851 -5.712109 64.772337 -1.120902 -3.665706 -6.555847 8.244824 -30.620783 -3.274797 -5.098232 -8.587472 -15.375850 0.000001 -0.000002 -0.000003 4.540609 -8.344329 48.387396 6.575547 -4.244511 114.349094 0.000001 -0.000000 -0.000001 2.375474 -6.542197 44.640201 7.222612 -3.888187 123.454795 -0.000001 0.000001 0.000001 2.745570 -6.923871 44.442282 7.225003 -3.886591 123.490298 0.000000 0.000001 0.000000 -10.268036 -14.528495 47.436285 6.314157 -4.353046 110.862897 -0.000001 0.000002 -0.000002 -4.248567 19.584154 15.511648 3.571499 2.148416 1.564964 23.170845 29.771538 -25.662675 -1.869975 0.000005 -0.000005 0.000000 -0.000001 -0.000000 -5.868399 -19.342198 -17.185145 2.527366 -6.341869 -4.757330 33.949749 -29.881811 30.489876 -4.609547 -0.000003 0.000021 -0.000000 -0.000000 -0.000000 
-0.092996 107.687622 -3.413246 -90.809298 -2.088500 1.730505 0.698609 -0.122068 -0.879284 0.841681 0.154199 -0.463160 0.000000 0.000000 0.000000 0.831241 0.158014 -0.488483 -3.937782 4.024676 -8.413907 2.565396 8.514524 -12.913616 0.000000 -0.000000 0.000002 0.834869 -6.690143 -3.495207 0.000000 0.000000 0.000000 44.105851 -39.875047 -34.542924 -0.000108 -83.340507 -0.000133 -23.131793 -8.494010 7.461473 -1.945772 1.585331 13.204785 8.601844 21.114942 -0.258285 -4.250525 28.326755 20.005255 0.000002 0.000003 -0.000001 0.776298 5.158030 -28.512492 0.566015 2.514181 -25.370932 0.000000 0.000002 -0.000000 0.776304 5.158029 -28.512492 0.566019 2.514182 -25.370937 -0.000001 0.000000 -0.000004 0.776297 5.158028 -28.512492 0.351471 2.000423 -19.928016 -0.000000 0.000001 0.000001 0.776300 5.158030 -28.512492 0.064891 0.870544 -8.527015 -0.000003 0.000001 0.000000 0.485149 4.473280 3.202568 0.000000 0.000000 0.000000 -4.337907 2.290721 83.617642 -0.000005 129.559946 0.000004 -0.044328 -5.712101 64.777480 -1.120906 -3.665706 -6.555844 8.244817 -30.620780 -3.274794 -5.098230 -8.587472 -15.375847 0.000004 0.000000 0.000001 4.540604 -8.344330 48.387396 6.575554 -4.244509 114.349094 -0.000004 -0.000001 0.000001 2.375477 -6.542197 44.640204 7.222612 -3.888185 123.454809 0.000005 -0.000001 0.000001 2.745568 -6.923870 44.442279 7.225005 -3.886594 123.490298 -0.000001 0.000002 0.000001 -10.268035 -14.528495 47.436279 6.314157 -4.353047 110.862897 0.000001 0.000003 -0.000001 -4.248274 19.584248 15.510933 3.575743 2.136608 1.565040 23.168864 29.770465 -25.661717 -1.862379 0.000011 0.000010 -0.000000 0.000003 -0.000000 -5.869475 -19.347377 -17.184773 2.528613 -6.329225 -4.756949 33.949032 -29.882153 30.489176 -4.623017 0.000021 -0.000000 0.000000 0.000000 -0.000000 
-0.092168 107.688171 -3.412209 -90.810514 -2.087929 1.731267 0.698642 -0.122094 -0.878997 0.841709 0.154199 -0.463160 0.000000 0.000000 0.000000 0.831227 0.158013 -0.488483 -3.979795 4.042042 -8.413908 2.683954 8.574674 -12.963801 -0.000000 0.000001 -0.000000 0.835171 -6.657532 -3.509658 0.000000 0.000000 0.000000 44.126885 -39.892413 -34.487565 0.000315 -83.340500 0.000312 -23.142489 -8.494803 7.460371 -1.945771 1.585332 13.204794 8.601846 21.114944 -0.258283 -4.250526 28.326751 20.005257 0.000001 0.000000 -0.000003 0.776297 5.158031 -28.512486 0.566015 2.514183 -25.370931 0.000000 0.000003 0.000000 0.776301 5.158033 -28.512486 0.566015 2.514183 -25.370937 0.000002 0.000001 0.000001 0.776297 5.158029 -28.512490 0.351471 2.000423 -19.928016 -0.000000 -0.000000 -0.000000 0.776299 5.158030 -28.512486 0.064892 0.870540 -8.527014 -0.000001 -0.000001 -0.000000 0.486108 4.456129 3.202491 0.000000 0.000000 0.000000 -4.344468 2.305369 83.623085 0.000014 129.552105 -0.000019 -0.043852 -5.712114 64.782377 -1.120904 -3.665707 -6.555845 8.244821 -30.620780 -3.274794 -5.098231 -8.587473 -15.375850 0.000004 -0.000001 -0.000002 4.540606 -8.344331 48.387399 6.575546 -4.244511 114.349094 0.000002 0.000002 0.000001 2.375474 -6.542197 44.640197 7.222610 -3.888180 123.454809 -0.000002 0.000002 -0.000000 2.745569 -6.923870 44.442279 7.225006 -3.886593 123.490298 0.000001 0.000001 0.000005 -10.268030 -14.528495 47.436282 6.314158 -4.353047 110.862897 -0.000001 -0.000000 -0.000002 -4.252428 19.589958 15.510893 3.582868 2.137375 1.565093 23.160695 29.768731 -25.661400 -1.850350 0.000007 -0.000005 -0.000000 0.000002 -0.000000 -5.870604 -19.356712 -17.185089 2.530571 -6.326124 -4.756367 33.948301 -29.882330 30.489398 -4.644822 -0.000010 -0.000021 0.000000 -0.000001 0.000000 
-0.091110 107.688972 -3.411293 -90.811962 -2.087440 1.731985 0.698612 -0.122117 -0.878743 0.841709 0.154200 -0.463161 0.000000 0.000000 0.000000 0.835894 0.158014 -0.488483 -4.036206 4.064477 -8.413909 2.850484 8.636294 -13.049390 -0.000000 0.000002 -0.000002 0.835483 -6.617841 -3.528195 0.000000 0.000000 0.000000 44.151432 -39.911186 -34.423026 0.000079 -83.340507 0.000082 -23.154352 -8.495713 7.459177 -1.945771 1.585331 13.204790 8.601844 21.114942 -0.258285 -4.250522 28.326755 20.005257 0.000001 0.000003 -0.000001 0.776298 5.158030 -28.512486 0.566017 2.514183 -25.370931 0.000002 0.000001 0.000000 0.776302 5.158033 -28.512486 0.566017 2.514184 -25.370939 -0.000001 0.000000 0.000001 0.776299 5.158030 -28.512490 0.351474 2.000427 -19.928016 -0.000000 -0.000000 0.000001 0.776299 5.158031 -28.512490 0.064888 0.870542 -8.527013 -0.000001 -0.000002 -0.000001 0.487200 4.436630 3.202407 0.000000 0.000000 0.000000 -4.352123 2.322253 83.628823 0.000024 129.543048 -0.000009 -0.043392 -5.712121 64.786981 -1.120904 -3.665707 -6.555846 8.244826 -30.620780 -3.274795 -5.098232 -8.587472 -15.375852 0.000002 0.000000 -0.000002 4.540606 -8.344331 48.387399 6.575550 -4.244514 114.349087 -0.000002 0.000003 -0.000001 2.375471 -6.542199 44.640201 7.222611 -3.888183 123.454809 -0.000000 -0.000002 -0.000001 2.745569 -6.923869 44.442279 7.225007 -3.886596 123.490298 0.000000 0.000001 0.000000 -10.268028 -14.528495 47.436279 6.314159 -4.353046 110.862897 -0.000001 0.000001 -0.000002 -4.257252 19.598371 15.509106 3.587172 2.108200 1.565224 23.158832 29.766996 -25.659165 -1.833871 0.000024 -0.000028 -0.000000 -0.000002 0.000000 -5.872651 -19.368620 -17.184968 2.533303 -6.311792 -4.755723 33.944128 -29.879752 30.484818 -4.673565 0.000011 -0.000019 0.000000 -0.000000 0.000000 
-0.089664 107.690010 -3.410118 -90.813505 -2.086788 1.732433 0.698604 -0.122158 -0.878291 0.846339 0.154199 -0.463160 0.000000 0.000000 0.000000 0.841254 0.158014 -0.488484 -4.105676 4.091022 -8.409051 3.063002 8.697893 -13.178684 0.000000 0.000001 -0.000001 0.835789 -6.571852 -3.550381 0.000000 0.000000 0.000000 44.179067 -39.931116 -34.350510 -0.000479 -83.340500 -0.000509 -23.167814 -8.494839 7.453495 -1.945774 1.585333 13.204789 8.601841 21.114942 -0.258283 -4.250525 28.326751 20.005255 0.000002 -0.000001 -0.000001 0.776297 5.158030 -28.512490 0.566015 2.514180 -25.370932 -0.000001 0.000001 0.000000 0.776301 5.158032 -28.512486 0.566015 2.514186 -25.370937 0.000000 -0.000002 0.000001 0.776296 5.158028 -28.512490 0.351471 2.000426 -19.928014 -0.000001 0.000001 0.000001 0.776297 5.158030 -28.512490 0.064892 0.870548 -8.527013 -0.000000 -0.000001 -0.000000 0.488426 4.415045 3.202312 0.000000 0.000000 0.000000 -4.360237 2.341241 83.634867 0.000013 129.532939 -0.000020 -0.042956 -5.712123 64.791379 -1.120908 -3.665707 -6.555844 8.244825 -30.620783 -3.274796 -5.098228 -8.587475 -15.375855 0.000003 0.000001 0.000003 4.540603 -8.344329 48.387399 6.575549 -4.244510 114.349087 -0.000001 -0.000001 0.000001 2.375473 -6.542197 44.640201 7.222611 -3.888184 123.454809 -0.000001 -0.000001 0.000001 2.745566 -6.923869 44.442279 7.225002 -3.886592 123.490298 0.000001 0.000002 0.000003 -10.268036 -14.528495 47.436282 6.314156 -4.353043 110.862897 0.000001 -0.000002 -0.000001 -4.264155 19.609202 15.508423 3.596527 2.103161 1.565334 23.147349 29.764773 -25.655657 -1.814094 -0.000006 -0.000011 -0.000000 0.000000 -0.000000 -5.875279 -19.382760 -17.189414 2.537327 -6.297202 -4.755039 33.937803 -29.877529 30.480221 -4.709006 -0.000005 -0.000004 -0.000001 0.000002 -0.000000 
